<svg xmlns="http://www.w3.org/2000/svg" viewBox="0 0 32 32" fill="none">
  <rect width="32" height="32" rx="6" fill="#1c1b19"/>
  <path d="M8 22V10h2.2l3.4 9.2h.05L17.1 10h2.15v12h-1.65v-8.4h-.05L14 22h-1.5l-3.55-8.4h-.05V22H8z" fill="#f7f5f2"/>
  <path d="M21.5 22V10h4.5c1.25 0 2.15.35 2.7 1.05.55.68.82 1.5.82 2.45 0 .95-.27 1.77-.82 2.45-.55.7-1.45 1.05-2.7 1.05h-2.85V22h-1.65zm1.65-6.35h2.75c.65 0 1.12-.18 1.4-.55.3-.38.45-.82.45-1.35 0-.52-.15-.97-.45-1.35-.28-.37-.75-.55-1.4-.55h-2.75v2.8z" fill="#c4b89a"/>
</svg>
